<?xml version="1.0" encoding="utf-8"?>
<!-- Generator: Adobe Illustrator 25.2.0, SVG Export Plug-In . SVG Version: 6.00 Build 0)  -->
<svg version="1.1" id="Layer_1" xmlns="http://www.w3.org/2000/svg" xmlns:xlink="http://www.w3.org/1999/xlink" x="0px" y="0px"
	 viewBox="0 0 120 120" style="enable-background:new 0 0 120 120;" xml:space="preserve">
<style type="text/css">
	.st0{fill:#F7DF1E;}
</style>
<rect class="st0" width="120" height="120"/>
<path d="M80.6,93.8c2.4,3.9,5.6,6.8,11.1,6.8c4.7,0,7.7-2.3,7.7-5.6c0-3.9-3.1-5.2-8.2-7.5l-2.8-1.2c-8.1-3.5-13.5-7.8-13.5-17
	c0-8.5,6.4-14.9,16.5-14.9c7.2,0,12.3,2.5,16,9l-8.8,5.6c-1.9-3.5-4-4.8-7.3-4.8c-3.3,0-5.4,2.1-5.4,4.8c0,3.4,2.1,4.8,6.9,6.8
	l2.8,1.2c9.6,4.1,15,8.3,15,17.7c0,10.2-8,15.7-18.7,15.7c-10.5,0-17.2-5-20.5-11.5L80.6,93.8z M40.8,94.7c1.8,3.1,3.4,5.8,7.3,5.8
	c3.7,0,6-1.4,6-7.1V55.1h11.3v38.5c0,11.7-6.8,17-16.8,17c-9,0-14.3-4.7-16.9-10.3L40.8,94.7z"/>
</svg>
