<svg id="Layer_1" data-name="Layer 1" xmlns="http://www.w3.org/2000/svg" viewBox="0 0 136.45 120"><defs><style>.cls-1{fill:#fefefe;}.cls-2{fill:#337dd5;}.cls-3{fill:#2860a2;}.cls-4{fill:#164faa;}.cls-5{fill:#154ea8;}.cls-6{fill:#2961a4;}.cls-7{fill:#164ea8;}.cls-8{fill:#2960a2;}.cls-9{fill:#2962a5;}.cls-10{fill:#e9e9e9;}.cls-11{fill:#e7e7e7;}.cls-12{fill:#3680d5;}.cls-13{fill:#e6e6e6;}.cls-14{fill:#1650ae;}.cls-15{fill:#e4e5e5;}.cls-16{fill:#e2e3e4;}.cls-17{fill:#3882d5;}.cls-18{fill:#e0e0e1;}.cls-19{fill:#e4e4e4;}.cls-20{fill:#e5e5e5;}.cls-21{fill:#1651af;}.cls-22{fill:#164fab;}.cls-23{fill:#1650ac;}.cls-24{fill:#dfdfe0;}.cls-25{fill:#2c67b0;}.cls-26{fill:#2962a6;}.cls-27{fill:#2a63a6;}.cls-28{fill:#eaeaea;}.cls-29{fill:#1651b1;}.cls-30{fill:#e0e0e0;}.cls-31{fill:#1653b7;}.cls-32{fill:#1651b3;}.cls-33{fill:#2a64a9;}.cls-34{fill:#1652b4;}.cls-35{fill:#2d69b4;}.cls-36{fill:#e1e1e1;}.cls-37{fill:#f0f0f0;}.cls-38{fill:#2f6cba;}.cls-39{fill:#eee;}.cls-40{fill:#ebebeb;}.cls-41{fill:#3170c0;}.cls-42{fill:#2e69b7;}.cls-43{fill:#306ebd;}.cls-44{fill:#316fbe;}.cls-45{fill:#488edc;}.cls-46{fill:#2e67ae;}.cls-47{fill:#326fbc;}.cls-48{fill:#3b83d7;}.cls-49{fill:#1655ba;}.cls-50{fill:#4b93dd;}.cls-51{fill:#488ddc;}.cls-52{fill:#448ada;}.cls-53{fill:#468bdb;}.cls-54{fill:#4186d9;}.cls-55{fill:#3171c2;}.cls-56{fill:#1757bd;}.cls-57{fill:#4d97df;}.cls-58{fill:#3272c4;}.cls-59{fill:#519de4;}.cls-60{fill:#509ce3;}.cls-61{fill:#3274c9;}.cls-62{fill:#4d99e0;}.cls-63{fill:#1758c0;}.cls-64{fill:#3277cb;}.cls-65{fill:#327ad1;}.cls-66{fill:#58a2e7;}.cls-67{fill:#55a0e6;}.cls-68{fill:#3279ce;}.cls-69{fill:#3279cf;}.cls-70{fill:#539ee5;}.cls-71{fill:#539ee4;}.cls-72{fill:#4e9ae2;}.cls-73{fill:#5da5e8;}.cls-74{fill:#60a9ea;}.cls-75{fill:#65b1ed;}.cls-76{fill:#63aeeb;}</style></defs><path class="cls-1" d="M68.32,0Q101.67,0,135,0c1.28,0,1.53.25,1.53,1.53q-.08,58.47,0,116.94c0,1.28-.25,1.53-1.53,1.53q-66.71-.06-133.39,0C.35,120,.1,119.75.1,118.47Q.16,60,.1,1.53C.1.25.35,0,1.63,0Q35,.08,68.32,0Z" transform="translate(-0.1 0)"/><path class="cls-2" d="M1.65,60.19a3.82,3.82,0,0,1,.79-2.79L33.1,4.45a4.83,4.83,0,0,1,4.56-2.63q30.81.06,61.62,0c.72,0,1.5-.23,2.13.38.47.66,0,1.17-.31,1.69-1,1.85-2,3.68-3.11,5.49-.64,1.18-1.4,2.28-2,3.49-.77.91-.86,2.42-2.38,2.63-3.83-1.45-7.34-3.67-11.4-4.52A67,67,0,0,0,68.83,9.26c-3,0-5.76.76-8.68.68-1.52,0-2.84.84-4.25,1.32-4.87.29-9.74.06-14.6.14a8.52,8.52,0,0,0-2.57.15c-1.42.75-1.83,2.26-2.6,3.49-.62,1-1.21,2-1.74,3C31.5,23,28.54,28,25.81,33c-1.62,2.45-3,5-4.45,7.59-2.77,4.69-5.48,9.42-8.19,14.15-.95,1.65-1.95,3.28-2.77,5a1.78,1.78,0,0,1-.93.82C6.85,60.7,4.21,61.28,1.65,60.19Z" transform="translate(-0.1 0)"/><path class="cls-3" d="M71.13,118.43l-34.36.06a3.34,3.34,0,0,1-3-1.63C30.1,110.61,26.5,104.31,22.87,98c-.11-.92.52-.7.92-.51A5.1,5.1,0,0,1,25.49,99,42.8,42.8,0,0,0,39,109.89c3.35,1.77,6.69,4,10.46,4.65,4.68.86,9.24,2.35,14,2.64a46.61,46.61,0,0,0,5-.21,4.4,4.4,0,0,1,2.87.56C71.79,118,71.49,118.21,71.13,118.43Z" transform="translate(-0.1 0)"/><path class="cls-4" d="M123.74,81.47c-2.87,5.14-5.71,10.31-8.92,15.25-1.67,0-2.32,1.28-2.76,2.58-.31.9-.66,1.55-1.65,1.79-.76.18-1.18.89-1.69,1.42a71.41,71.41,0,0,1-7.38,6.74c-1.1.84-2.73.55-3.6,1.8-1,.08-1-.87-1.52-1.34s-.84-1-.57-1.71c1.15-1.25,3.15-1.35,4-3,.53-.2.8-.73,1.29-1,1,0,1.11-.95,1.62-1.48s.66-1.52,1.54-1.81c.38,0,.72.26,1.12.16a1.4,1.4,0,0,0,1-1.7c0-.44.1-.87.61-1,.41.05.46.47.7.71.1-.38-.18-.64-.28-1,0-.8.88-.57,1.23-1a6.71,6.71,0,0,0,1.65-1.08,4.1,4.1,0,0,1,2.21-3.57,2,2,0,0,0,1.12-2.15c0-.3-.06-.73.16-.89,1.75-1.23,1.06-4.12,3.48-5,.5-.18.26-1.59.5-2.43.3-1,.28-.89,1.52-1.62a1.84,1.84,0,0,0,.6-2.24c-.34-.81-.49-1.61.73-1.8.33,0,.48-.36.42-.5-.62-1.66.28-3.21.28-4.83a63.41,63.41,0,0,1,4-7.16c.21-.35.47-.78,1-.49,1.87,2.57.65,5.15-.05,7.67-.83,3-1.19,6.08-2.42,9A2.12,2.12,0,0,0,123.74,81.47Z" transform="translate(-0.1 0)"/><path class="cls-5" d="M123.74,81.47a2.23,2.23,0,0,1-.32-2.72,25.07,25.07,0,0,0,1.64-6.41c.19-1.31,1-2.61,1.31-4a9,9,0,0,0-.32-5.18,1,1,0,0,1,0-1c.92-1.47.34-2.92,0-4.39.64-2.59-.57-5-.71-7.53a11.6,11.6,0,0,0-1.9-5.95,4.29,4.29,0,0,1-.67-3c.13-.8.45-1.87,1.66-.86C128.19,46,131.35,52,134.78,57.8a4.28,4.28,0,0,1,.08,4.61c-3.44,5.67-6.34,11.65-10.18,17.08A12.4,12.4,0,0,0,123.74,81.47Z" transform="translate(-0.1 0)"/><path class="cls-4" d="M124.51,40.38c-1-.42-1.44.21-1.27.91.23.92.09,1.88.78,2.79,1.62,2.13,1.9,4.74,2,7.34.07,1.54,1.07,2.9.77,4.52a5.18,5.18,0,0,1-.39,2c-.46.19-.7-.15-.87-.45a29.86,29.86,0,0,1-2.84-5.32,43.46,43.46,0,0,0-1-4.9,1.05,1.05,0,0,0-.51-.85A3.62,3.62,0,0,1,119.69,42c.32-.7.24-1-.31-1.36A2.44,2.44,0,0,1,118,38.36c0-1.14-1.25-1.74-1.16-2.91,0-.08-.26.18-.46.06-.91-.58-1-1.2-.33-2.28-1.63-.45-3-1.09-2.37-3.21,0-.12,0-.3,0-.34-2-.83-2.15-2.91-3-4.52-.14-.08-.28-.16-.41-.25a8.94,8.94,0,0,0-1-.66l-.4-.22c-.63-.29-1.73,0-1.55-1.29.15-.09.32-.14.48-.23-.55-.35-.57-1.49-1.63-1.07-1.1-.32-.17-1.37-.69-1.89a1.46,1.46,0,0,0-.34-.26c-.44-.15-.88.18-1.32,0a.89.89,0,0,1-.53-.77c0-.45,0-1-.63-1.05A.81.81,0,0,1,102,17c-.21-.52-.57-.41-.94-.2-.85.31-1.32.05-1.31-.9,0-.25.89-.64-.13-.71q-3.5.63-3.82-2.46a10.33,10.33,0,0,1,1.87-3.37c2.13,1.27,3.89,3,6.18,4.12,1.78.84,2.65,2.92,4.36,4,2.9,1.83,4.31,5.08,6.77,7.34.31.29.43.8,1,.74C119,30.38,121.89,35.3,124.51,40.38Z" transform="translate(-0.1 0)"/><path class="cls-3" d="M96.53,109.5l1.12,1.5c1.79,1.85,2.74,4.22,3.92,6.45a.65.65,0,0,1-.17.69c-.32.39-.77.35-1.2.35q-14.53,0-29.07-.06l.37-.71c.6-1.37,1.93-1.08,3-1.2a65.82,65.82,0,0,0,8.15-1.69,39.94,39.94,0,0,0,11.49-5C94.84,109.4,95.63,108.88,96.53,109.5Z" transform="translate(-0.1 0)"/><path class="cls-6" d="M96.53,109.5a9.7,9.7,0,0,0-4.62,2.17c-2.13,1.76-4.77,2.18-7.22,3a58,58,0,0,1-12.38,2.64,3.41,3.41,0,0,0-.81.36c-1.88-.54-3.76,0-5.64,0a48.2,48.2,0,0,1-13.21-2.09c-2-.59-4.24-.46-6.13-1.6-1.45-.88-3.27-1-4.51-2.37-.81-.9-2.29-.17-3.16-1.08a16.13,16.13,0,0,0-3.69-2.48,42,42,0,0,1-9.72-8.46c-.61-.69-1.07-2.13-2.57-1.58a18.32,18.32,0,0,1-2.6-4.52c.63-.5.89-.47,1.58.1s1,1.42,1.57,2c3.11,3.25,6.39,6.3,9.75,9.28,1,.91,2.37,1.06,3.33,2,.83.51,1.33,1.37,2.11,1.92.74.37,1.6.12,2.35.46,4.83,2.23,9.75,4.34,15,5.13,4.55.68,9.08,1.56,13.82.91,3-.41,6.13-.51,9.18-1.1a47.88,47.88,0,0,0,12.13-4.57c1.38-.69,2.8-1.31,4.14-2.09.33,0,.58,0,.52.46C95.73,108.66,96.33,109,96.53,109.5Z" transform="translate(-0.1 0)"/><path class="cls-7" d="M115.94,25.55c-2-.41-3-2.1-4-3.61a21.18,21.18,0,0,0-5-4.86,5,5,0,0,1-1.06-.94,9.68,9.68,0,0,0-3.64-3.05,11.15,11.15,0,0,1-4.61-3.74l3.77-7.11a3.32,3.32,0,0,1,2.31,2c3.06,5.25,6.22,10.44,9.1,15.79C113.82,21.87,115,23.62,115.94,25.55Z" transform="translate(-0.1 0)"/><path class="cls-5" d="M101.4,118.14,97.65,111a1.38,1.38,0,0,1,1-1.38c2.74-.49,4.22-2.7,6.26-4.19s3.21-4.43,6.12-5c.52-.11.35-.72.41-1.13.22-1.34,1.26-2.09,2.15-2.93.53-.49.89-.09,1.18.36q-5.4,9.48-10.81,19C103.39,116.75,102.79,117.86,101.4,118.14Z" transform="translate(-0.1 0)"/><path class="cls-8" d="M1.65,60.19h8.2a1.72,1.72,0,0,1,.72,1.65,42.2,42.2,0,0,0,1.85,13.35c.34,1.27.36,2.58.67,3.84.1.43.12,1.06-.69,1Q7.24,71.17,2.08,62.32A2.8,2.8,0,0,1,1.65,60.19Z" transform="translate(-0.1 0)"/><path class="cls-9" d="M12.4,80c.6-1.49-.08-2.93-.44-4.25a95.48,95.48,0,0,1-2.1-12,3.16,3.16,0,0,1,.38-2.16l.25-.1a1.09,1.09,0,0,1,.44.29,5.06,5.06,0,0,1,1.22,2.65,63.61,63.61,0,0,0,2.66,13.06c.85,2.58,2.49,4.83,2.87,7.6.21,1.5,1.68,2.4,2.44,3.69a41.88,41.88,0,0,0,7.57,9.82c2.39,2.22,4.63,4.68,7.63,6.15.62.71,1.55,1.28,1,2.46-3.81-1.73-6.52-4.77-9.46-7.61a35.14,35.14,0,0,1-5.14-5.56c-.21-.31-.73-1.08-1.49-.58C17.47,89.12,14.94,84.56,12.4,80Z" transform="translate(-0.1 0)"/><path class="cls-10" d="M21.05,40.38a77.74,77.74,0,0,1,4.33-7.51c1.61-1.4,2.36-3.43,3.69-5.06A47.25,47.25,0,0,1,45.69,14.44a69.41,69.41,0,0,1,7.4-3.37h3a.7.7,0,0,1,.71.48,1.63,1.63,0,0,1-.84,1.83c-1.57.59-3.29.46-4.89,1.12-1.84.75-3.71,1.33-5.17,2.83-.82.85-2.14.9-3.18,1.51a39.86,39.86,0,0,0-9,7.45c-3.83,4.21-7.49,8.59-9.26,14.25-.93,3-2.59,5.8-2.9,9-.25,2.72-1.07,5.35-1.12,8.1a3.48,3.48,0,0,1-.92,2.75,2.39,2.39,0,0,1-2.07,0,2,2,0,0,1-.74-2.34c.82-2.93.7-6,1.51-8.95S19.59,43.13,21.05,40.38Z" transform="translate(-0.1 0)"/><path class="cls-11" d="M52.82,11.27c-.3.31-.54.81-.89.91C48,13.32,44.62,15.4,41.2,17.46A48.12,48.12,0,0,0,29.79,27.6c-1.5,1.73-2.18,4.16-4.41,5.27,2.73-5.06,5.63-10,8.63-14.95,3.05-1.51,5.45-4,8.52-5.53.87-.43,1.57-1.21,2.61-1.33C47.7,11.19,50.27,10.8,52.82,11.27Z" transform="translate(-0.1 0)"/><path class="cls-12" d="M56.59,11.63l-.41-.45c-.13-.07-.18-.14-.13-.21s.08-.1.13-.1a6.41,6.41,0,0,1,4.2-1.47c1.5,0,2.94-.44,4.39-.52a44.63,44.63,0,0,1,9,.07c4.58.66,9.14,1.33,13.44,3.11,2.31,1,4.52,2.19,6.77,3.3.39.48.1.88-.14,1.3s-.61.77-1.18.69a33.52,33.52,0,0,1-4.28-1.82,27.54,27.54,0,0,0-9.9-2.94c-1.47-.13-2.9-.64-4.37-.92-4.87-.91-9.64,0-14.44.55C58.55,12.35,57.39,12.91,56.59,11.63Z" transform="translate(-0.1 0)"/><path class="cls-13" d="M21.05,40.38a5,5,0,0,1-.48,2.3c-1.08,2.25-1.09,4.82-1.87,7.13-.88,2.65-.42,5.49-1.54,8-.38.88.07,1.57.16,2.35a1.47,1.47,0,0,1-1.05.45,9.29,9.29,0,0,1-1.18,0,2.75,2.75,0,0,1-.89-.17,1.19,1.19,0,0,1-.47-.36c-.9-1.75-.66-3.68-.89-5.54C15.44,49.77,18.16,45,21.05,40.38Z" transform="translate(-0.1 0)"/><path class="cls-14" d="M93.54,16.48l.39-1.12,1.84-2.64c.91,1.65,2.11,2.66,4.12,1.89a.8.8,0,0,1,0,1.12c.06.73.31,1.16,1.13.74.47-.18,1-.54,1.12.38a.77.77,0,0,0,.74.37.46.46,0,0,1,0,.5,8.48,8.48,0,0,0-1.8,2.48,2.36,2.36,0,0,1-1.39,1.36,27.31,27.31,0,0,1-6-3.58A1,1,0,0,1,93.54,16.48Z" transform="translate(-0.1 0)"/><path class="cls-15" d="M44.6,11.27c-.33,1.28-1.66,1.53-2.52,2a44.18,44.18,0,0,0-5.87,4,2.74,2.74,0,0,1-2.2.66q1.93-3.33,3.86-6.66A23.35,23.35,0,0,1,44.6,11.27Z" transform="translate(-0.1 0)"/><path class="cls-16" d="M12.84,54.58c1.16,1.71.53,3.78,1.12,5.61a17.34,17.34,0,0,0-2.05,1.5c-.4.47-.9.61-1.36,0v0c.18-.83-.91-1.46-.36-2.34A19.77,19.77,0,0,1,12.84,54.58Z" transform="translate(-0.1 0)"/><path class="cls-17" d="M44.6,11.27H37.87c.54-.64,1.27-.38,1.92-.38,5.46,0,10.92,0,16.39,0v.31l-3.36.09Z" transform="translate(-0.1 0)"/><path class="cls-18" d="M10.2,59.39c-.15.82.88,1.46.36,2.34l-.32-.09-.39-1.45Z" transform="translate(-0.1 0)"/><path class="cls-19" d="M123,52a44.25,44.25,0,0,0,3.4,5.9c1.29,1.85.57,3.56-.38,5.26a73.55,73.55,0,0,0-4.5,7.79,43.93,43.93,0,0,1-4.07,7.74c-2.57,4.41-5,8.89-7.71,13.22-.29.47-.5,1.85-1.63.72a21.27,21.27,0,0,1,.32-7,18.84,18.84,0,0,0,.58-3.49c.1-7.52.42-15,.81-22.55.11-2-.48-4-.31-5.94.22-2.55-.2-5.07-.12-7.6-.85-5.7-.62-11.5-1.77-17.17a2.94,2.94,0,0,1,.1-1.47c1-1.2,1.33-.09,1.68.49,1.38,2.29,2.72,4.6,4,6.91q3.85,6.71,7.75,13.38A24.86,24.86,0,0,1,123,52Z" transform="translate(-0.1 0)"/><path class="cls-20" d="M110,46c.13,5.28.5,10.57.31,15.83-.25,7.1-.35,14.21-.81,21.28-.21,3.32-1.06,6.62-1,10,.48.68-.08,1.16-.35,1.68-.8,1.55-1.71,3-2.62,4.51-.28.41-.5.85-.81,1.25a.82.82,0,0,1-.41.24c-.74.5-.83,1.44-1.43,2a.89.89,0,0,1-.79.11c-1.68-1.58-2.39-3.79-3.62-5.66C97,94.59,95.38,92,93.82,89.42c-1.37-1.89-.88-3.67.22-5.5,3.88-6.48,7.56-13.09,11.4-19.6.36-.61.61-1.38,1.42-1.63.56.06.71.64,1.37,1-.48-1,.8-1.93-.3-2.79a36,36,0,0,0-2.32-4.44,3.06,3.06,0,0,1-.7-2.24c.72-1,1.3-2-.32-2.79-.72-.38-.4-1.08.17-1.52a13.92,13.92,0,0,1,1.48-.78c1.08-.62,2.9-.44,2.6-2.55C108.79,46.25,109.37,45.78,110,46Z" transform="translate(-0.1 0)"/><path class="cls-14" d="M105.11,99.41l3.39-6.31,12-20.59c.31-.53.68-1,1-1.54-.57,1.23.76,2.88-.86,3.9-.14.09.13.43.41.44s.74.36.57.33c-1.12-.18.44,1.7-.9,1.09s-1.2.36-.71.88c1.33,1.42-.55,2.1-.58,3.18,0,.06-.15.18-.23.19A2,2,0,0,0,118,83.7a.79.79,0,0,1-.6,1.19c-1.8.19-1.55,2-2.45,2.89-.52.52,1.08.35.9,1.29-2.11-.85-2.1.53-1.87,1.94.12.81-.28,1-.83,1.39-1.17.87-3.07,1.45-2.14,3.65.07.16-.39,0-.6,0-1.24-.65-1.24.77-1.87,1.12.09,1-1,.12-1.12.75a.46.46,0,0,1-.38.38c-.44.26-.36.71-.37,1.12C106.11,99.87,105.61,100.26,105.11,99.41Z" transform="translate(-0.1 0)"/><path class="cls-21" d="M98.78,97.17l3.38,5.6c-.38.5-.54,1.17-1.14,1.5-.24.46-.07,1.52-1.13.75a4.52,4.52,0,0,0-2.26,1.43c-.55.71-1.3,1.38-2.37.77A2.88,2.88,0,0,1,94,105.88a15.58,15.58,0,0,0-1.52-2.7,3.94,3.94,0,0,1-.7-2C93.84,99.28,95.88,97.48,98.78,97.17Z" transform="translate(-0.1 0)"/><path class="cls-22" d="M95.4,106.89c1.09.7,1.65-.17,2.06-.86a1.86,1.86,0,0,1,2.43-1c-.52,2.15-2.55,2.24-4.1,3l-.38-.38A.51.51,0,0,1,95.4,106.89Z" transform="translate(-0.1 0)"/><path class="cls-23" d="M108.49,97.17c-.31-1.32,1.25-1.44,1.62-2.39l.25,1.27A1.77,1.77,0,0,1,108.49,97.17Z" transform="translate(-0.1 0)"/><path class="cls-23" d="M105.11,99.41c.5.36,1,0,1.51,0,.44,1.37-.83,1.6-1.49,2.24-.22-.39-.23-.9-.7-1.12A2,2,0,0,1,105.11,99.41Z" transform="translate(-0.1 0)"/><path class="cls-22" d="M101,104.27c.29-.57,0-1.57,1.14-1.5l.72,0C102.07,103.06,102.83,105.31,101,104.27Z" transform="translate(-0.1 0)"/><path class="cls-23" d="M107,98.3l.38-.38c1.39.52.94,1.1-.07,1.81Z" transform="translate(-0.1 0)"/><path class="cls-22" d="M104.43,100.54c1.1-.17.77.56.7,1.12a1.43,1.43,0,0,1-.82-.88A.21.21,0,0,1,104.43,100.54Z" transform="translate(-0.1 0)"/><path class="cls-20" d="M110,46c-.69.51-1.56.88-.66,2,.59.72,0,1-.66,1a4.45,4.45,0,0,0-2.42.72c-1.3.68-3,.84-.21,2.2,1.3.64-.19,1.77-1.06,2.38-.75,0-1-.67-1.32-1.19-3.48-6-6.86-12-10.39-17.9a3.46,3.46,0,0,1,.17-3.54C94.84,29.48,96,27.2,97.34,25c.92-1.17,1.26-2.74,2.52-3.67.55-.9,1.09-1.8,1.63-2.7.32-.54.62-1.1,1.39-1,.48.07.6.44.71.83s0,.56.34.69c1.81,2.35,3.77,4.61,4.24,7.69-.31,2.7.65,5.27.85,7.92a71.67,71.67,0,0,0,.52,7.59A16.53,16.53,0,0,1,110,46Z" transform="translate(-0.1 0)"/><path class="cls-14" d="M108.17,26.81l-4.24-7.69c.53.27,1-1.23,1.57,0a1.2,1.2,0,0,0-.13.33c0-.11.08-.22.13-.33,1.65.28-.07,1.68.75,2.24a2.57,2.57,0,0,1,1.12,1.5C107.52,24,109,23,109.23,24c-.27.25.12.59-.12.85.27-.25-.1-.6.13-.85a1,1,0,0,1,1,.88c0,.21,0,.21,0,.15s-.08.1,0-.14.32-.1.07-.13c0,0-.1.17-.07.12A1.13,1.13,0,0,1,111.85,26c-.43,2.27,1.34,2.68,2.65,3.53-1.17,1.81-.74,2.64,1.54,2.89a1.11,1.11,0,0,1,.85.63.51.51,0,0,1-.24.78c-.59.18-1.08.1-.44,1,.88,1.21.52-1.54,1.24,0-.54.82-.57,1.62.89,2.05.48.14.23,1.27.17,1.55-.25,1.21.4,1.47,1.23,1.89s1,1,.21,1.88c-.54.65.48,3.74,1.33,4,.21.07.56-.51.66.12.31,1.94,1.18,3.78,1.09,5.79q-6.16-10.56-12.35-21.11C109.87,29.53,109,28.18,108.17,26.81Z" transform="translate(-0.1 0)"/><path class="cls-23" d="M107.37,22.83a1.75,1.75,0,0,1-1.12-1.5c.23-.21.16-1.17.81-.31a3.59,3.59,0,0,0,.7.8c.32.21,1.11-.13.83.74S107.78,22.74,107.37,22.83Z" transform="translate(-0.1 0)"/><path class="cls-23" d="M99.89,15.73V14.61c.36.3,1.2.24.92,1C100.64,16.11,100.22,15.84,99.89,15.73Z" transform="translate(-0.1 0)"/><path class="cls-23" d="M103.59,18.43l-.71-.83v-.38C104,17.11,103.87,17.72,103.59,18.43Z" transform="translate(-0.1 0)"/><path class="cls-23" d="M102.14,16.85c-.27-.44-.71-.36-1.12-.38.2-.43.46-.72,1-.42S102.59,16.5,102.14,16.85Z" transform="translate(-0.1 0)"/><path class="cls-24" d="M36.36,107.26c0-.93-.69-1.52-1.11-2.24-1.28-1.26-1.85-3-2.88-4.41-.63-1.2-1.38-2.33-2-3.53-.27-.54-.75-1-.48-1.7a3.66,3.66,0,0,0,1.73-1.23c.79.37.52,1.13.79,1.64s.44,1.3,1,1.2c2.17-.39,2.61,1.08,3,2.68.15.16.4-.3.2-.15,0,0-.07,0-.1,0-.66-.92-.4-2-.66-3A1.94,1.94,0,0,1,37.11,96c-.26-.26-.6-.12-.86-.24-.75-.34-.71-1-.45-1.57s.84-.3,1.25-.11a5.81,5.81,0,0,1,2,1.35,3.23,3.23,0,0,0,2.84,1.36c1.07-.06,1.63,1,1.87,1.83s-.59,1.07-1.28,1c-1-.16-2-.56-3-.06-.16.07-.61-.56-.51.24a1.88,1.88,0,0,0,2.36,1.46c.48-.22-.1-.23-.14-.38-.16-.71.36-.83.82-1a.76.76,0,0,1,1.13.59c.32,1.61,1.42,1.83,2.83,1.88a3,3,0,0,1,2.55,1.21c.59.86,1.85.83,2.76,1.32.08-.21.95.91.48-.29-.16-.42.25-.68.62-.76a4.28,4.28,0,0,1,1.85,0c1.15.74,1.51,2.06,2.26,3.1.74,2.07.45,2.74-1.45,2.74-5.59,0-11.18.34-16.74-.44Z" transform="translate(-0.1 0)"/><path class="cls-25" d="M38.26,109.18l15.78,0c3,0,3,0,1.75-2.6-.37-1.43.75-1.26,1.44-1.19,2.6.25,5.2.34,7.79.56a26,26,0,0,0,8.66-.36c3-.78,6.09-1.46,9.1-2.48,2.78-.94,5-2.89,8-3.41,1.14-.05,1.08.9,1.32,1.6l.75,1.87a1,1,0,0,1-.58,1.23c-2.32.77-4.25,2.31-6.55,3.16-1.47.55-3.13.47-4.44,1.24-3,1.79-6.52,1.64-9.79,2.2a20,20,0,0,1-6.52.32c-2.31-.36-4.64-.55-7-.9A50,50,0,0,0,47,110a17.66,17.66,0,0,1-6.14-.53C40,109.37,39.06,109.82,38.26,109.18Z" transform="translate(-0.1 0)"/><path class="cls-26" d="M40.86,109.51h6.72c2.58,1.52,5.54,1.74,8.36,2.43A41.18,41.18,0,0,0,68.48,113c6.23-.4,12.46-1.17,18.26-3.88,1.91-.9,3.64-2.12,5.61-2.89a3.32,3.32,0,0,1,1.94-.48l1.11,1.13c0,.25,0,.49,0,.74-1.13,1.71-3.16,2.08-4.79,2.87a41.84,41.84,0,0,1-9.36,3.69c-3.56.74-7.05,1.89-10.75,1.37-.89-.12-1.46.68-2.29.62-4.84-.41-9.68-.52-14.46-1.79-2.61-.69-5.19-1.46-7.73-2.33A41.29,41.29,0,0,1,40.86,109.51Z" transform="translate(-0.1 0)"/><path class="cls-27" d="M32.73,100.5A17.6,17.6,0,0,1,35.25,105c-.31,0-.68,0-.91-.14a63.08,63.08,0,0,1-9.4-8.42c-2.85-3-4.4-6.92-7.21-9.93a1.28,1.28,0,0,1-.37-.63c-.82-4.23-3.6-7.81-4.19-12.06-.44-3.21-1.77-6.29-1.43-9.61,1.68.65,1.82,2.33,2.5,3.66a5.12,5.12,0,0,1,.35,1c-.05,2.54,1.12,4.8,1.72,7.17.85,3.3,2.52,6.34,3.92,9.42A38.91,38.91,0,0,0,27.79,96,22.94,22.94,0,0,0,32.73,100.5Z" transform="translate(-0.1 0)"/><path class="cls-18" d="M14,68c-.75-1.24-1.49-2.49-2.24-3.74-.4-.84-.79-1.68-1.19-2.53.7.38,1.09-.21,1.35-.6A2,2,0,0,1,14,60.19h.37c.41.26.6.58.33,1.05a3.91,3.91,0,0,1-.26.44A15.86,15.86,0,0,1,14.32,67C14.27,67.33,14.29,67.7,14,68Z" transform="translate(-0.1 0)"/><path class="cls-19" d="M14,68c.13-1.22-.8-2.57.54-3.68.31-.26-.51-.66-.49-1.08.05-.64-1.2-1.5.3-1.9,1.15.49,1.38-.53,1.87-1.12h3.36c.75-.68,1.68-.47,2.55-.54s1.51,0,2.27,0c1.05,0,2.1,0,3.15,0a4,4,0,0,1,1.2.2,1.79,1.79,0,0,1,.7.51c1.05,1.77,2.16,3.51,3.14,5.32,2.09,3.7,4.26,7.36,6.4,11A43.12,43.12,0,0,0,41.49,81c1.27,2.42,2.65,4.77,4.11,7.08,1.36,2.68,3,5.22,4.49,7.81.8,1.55,1.69,3.06,2.61,4.54.32,1.16,1.65,2,1.26,3.37-.52.75-1.42-.15-2,.45.38.79,1.3,0,1.71.6-2,1.36-3.73-.63-5.63-.49-.08-2-1.88-1.87-2.9-1.75-1.8.22-2-.86-2.37-2-.44-1.5-1,.25-1.44,0l1,.59a7.39,7.39,0,0,1-1.88.53c-1.66,0-2.08-.75-1.92-3.25.45-.46.86,2,1.49,0,.18-.58,1.09.59,1.9.49.42,0,1,.55,1.46,0,.23-.3-.48-.55-.5-1.08s-.86-1.1-1.21-.82c-1.56,1.24-2.55-.66-2.77-1-.67-1.14-1.83-1.24-2.77-2C35.54,96,38,95,38,96.32c-.66-.39-1.2.61-2,.11-.68-.88-2.07-1.14-2.25-2.39s-2.85-.1-2-2.42c-.63,2-2.21.9-3.27,1.31-.93-.37-1.24-1.27-1.72-2-2.28-4.15-4.76-8.18-7.09-12.3-1.37-2.58-3-5-4.36-7.58a14.52,14.52,0,0,1-1-2.17C14,68.65,14,68.31,14,68Z" transform="translate(-0.1 0)"/><path class="cls-28" d="M22.18,60.19H19.56q.95-6.76,1.88-13.52a12.54,12.54,0,0,1,1.2-3.1c1.8-4.3,3-9.12,6.17-12.49,2.61-2.75,4.54-6.16,8-8.27,1.94-1.2,3.44-3.2,5.57-4.25,3.43-1.68,6.39-4.32,10.25-5.11,1.07-.21,2.18-.22,3.27-.33.33.46.08.86-.12,1.27-.61.71-.64,1.89-1.75,2.21-3-1.05-5,.91-7.21,2.42a4.18,4.18,0,0,1-1.58.94c-2.32.42-3.91,2-5.56,3.47-.79.7-1.39,1.6-2.51,1.84a1.44,1.44,0,0,0-1,1,6.79,6.79,0,0,1-2.41,3c-2,1.6-3.24,3.71-4.61,5.86-1.65,2.57-2.61,5.43-4,8.07a22.22,22.22,0,0,0-2.22,7.81c-.26,2.25-.69,4.47-.76,6.76C22.06,58.64,22.25,59.4,22.18,60.19Z" transform="translate(-0.1 0)"/><path class="cls-17" d="M55.44,14.25c.14-.37.27-.75.41-1.13a2.37,2.37,0,0,0,.74-1.49,2.66,2.66,0,0,0,2,.33,61.78,61.78,0,0,1,12.59-1.15,18.32,18.32,0,0,1,4.33.59c2.69.7,5.46,1.06,8.16,1.77,2.93.76,5.27,2.59,8.1,3.36a4,4,0,0,1,1.06.72,1.59,1.59,0,0,1-1.24,2.29A51.94,51.94,0,0,0,78,14.63a35.17,35.17,0,0,0-7.53-.79A88,88,0,0,0,57,15.22C55.7,15.41,55.69,15.34,55.44,14.25Z" transform="translate(-0.1 0)"/><path class="cls-29" d="M91.67,19.4a3.87,3.87,0,0,0,1.14-2.15l.73-.77c-.27,1.44,1.09,1.45,1.8,1.95,1.46,1,3,1.94,4.52,2.9a19,19,0,0,1-2.16,3.76.93.93,0,0,1-1,.11C94.35,24.14,92.14,23,91,20.51,91,20,90.94,19.46,91.67,19.4Z" transform="translate(-0.1 0)"/><path class="cls-30" d="M16.2,60.19c-.05.63.22,1.48-.64,1.69-.35.09-1.17.34-1.23-.57h0c.54-.18.45-.78.75-1.12Z" transform="translate(-0.1 0)"/><path class="cls-16" d="M15.08,60.19c0,.54,0,1.08-.75,1.12a1,1,0,0,0,0-1.12Z" transform="translate(-0.1 0)"/><path class="cls-31" d="M93.85,31.79c-.84,1.37-.55,2.56.26,3.91,3.68,6.15,7.25,12.37,10.86,18.56.88,1.64,1.73,3.29,2.68,4.89A2.17,2.17,0,0,1,108,60.9a1.84,1.84,0,0,1-1,1.86c-4.46,7.66-8.89,15.34-13.41,23-.9,1.52.59,2.38.68,3.6C92,90.59,90.33,92.75,88,93.93c-.53,0-.78-.35-1.07-.69A31.09,31.09,0,0,0,85,90.13a2.39,2.39,0,0,1-.43-1.57,2.81,2.81,0,0,1,1.69-2.1,10.49,10.49,0,0,0,4.57-4.72,2.45,2.45,0,0,1,1.42-1.15c.4-.16.93-.21,1.13-.6,1.1-2.17,2.75-4,3.54-6.36.69-2,2-3.87,2.2-6.08.15-1.66,1.51-3.2.48-5a.63.63,0,0,1,0-.55c1.33-2.45.46-4.74-.25-7.18-.41-1.4-.41-3-.74-4.48-.66-3-2.45-5.4-4.06-7.9-1.22-1.89-3-3.35-4.21-5.26-.32-.51-.93-.59-1.41-.87-1.84-1.08-3.64-2.2-4.29-4.43a6.1,6.1,0,0,1,.74-2.58,5.31,5.31,0,0,1,.77-1.06c.33-.39.57-.88,1.06-1.13a1.51,1.51,0,0,1,.52-.05A16.26,16.26,0,0,1,93.85,31.79Z" transform="translate(-0.1 0)"/><path class="cls-32" d="M87.93,93.82c2.06-1.56,3.56-3.91,6.31-4.49a63.64,63.64,0,0,1,4.54,7.84,29.19,29.19,0,0,0-6.73,4.11l-1.12-1.49c-1.37-1-1.63-2.71-2.58-4C88.06,95.18,87.39,94.63,87.93,93.82Z" transform="translate(-0.1 0)"/><path class="cls-20" d="M109.08,58c-.31-1.36,0-2.65-1.72-2.83-.11,0-.32-.36-.28-.41.84-1.24.43-2.76.94-4.06.26-.67.69-.63,1.09-.08a1,1,0,0,1,.25.49c.07,2,.13,4.09.15,6.14C109.51,57.54,109.23,57.79,109.08,58Z" transform="translate(-0.1 0)"/><path class="cls-20" d="M107,62.76c0-.8.66-1.25,1-1.86.7.15,2.07-.11.78,1.27-.15.17-.16.45-.29.65-.29.44.71,1.35-.41,1.42C107.15,64.3,107.39,63.23,107,62.76Z" transform="translate(-0.1 0)"/><path class="cls-33" d="M94.29,105.76c-4.47,2.34-8.84,5-13.86,6a74.89,74.89,0,0,1-14.13,1.63c-5.72.09-11.1-1.23-16.55-2.45-.87-.19-1.86-.36-2.17-1.46a59.59,59.59,0,0,1,10,.33c2.92.44,5.83.87,8.8,1.06.86,0,1.86-.47,2.66.28.51-1.76,1.94.3,2.91-.74.69-.74,2.2-.39,3.4-.33.9,0,1.81-.72,3-.37.39.11,1.14-.91,2-1.22,1.38-.51,2.92-.39,4.17-1.11,1-.59,2.25-.57,3.24-1.43s2.33-1.13,3.5-1.73a5.3,5.3,0,0,0,1.56-1.1A4.1,4.1,0,0,1,94.29,105.76Z" transform="translate(-0.1 0)"/><path class="cls-34" d="M93.85,31.79c-2.1-1.52-4.09-3.2-6.34-4.51-.44-.89.24-1.53.52-2.25a25.68,25.68,0,0,0,1.9-3.4c.4-.42.57-1.14,1.36-1.06a12.69,12.69,0,0,0,6.41,4.52A56.37,56.37,0,0,1,93.85,31.79Z" transform="translate(-0.1 0)"/><path class="cls-23" d="M105.5,19.09c.23.46.3.9-.22,1.24-.49-.52-.47-.94.22-1.24Z" transform="translate(-0.1 0)"/><path class="cls-23" d="M110.32,24.64c.24.47.34.87-.09,1.21C109.75,25.41,110.05,25.05,110.32,24.64Z" transform="translate(-0.1 0)"/><path class="cls-23" d="M109.54,25.32c-.42-.46-.77-.85-.52-1.1.53-.54.28.3.51.39C109.58,24.63,109.54,24.92,109.54,25.32Z" transform="translate(-0.1 0)"/><path class="cls-35" d="M88.68,95.68a23.75,23.75,0,0,1,2.25,4.11c-2.43.86-4.29,2.76-6.93,3.37-2.27.52-4.42,1.6-6.74,2.21a32.7,32.7,0,0,1-10.79,1.33c-2.95-.25-6-.17-8.9-.86-.64-.15-1.56-.43-1.78.72L54,103.84c-.55-1.09-1.1-2.18-1.64-3.27,1.54-1.14,3.12-.31,4.62,0a40,40,0,0,0,10.67,1.27,47.76,47.76,0,0,0,17.59-4.1C86.45,97.22,87.4,96.18,88.68,95.68Z" transform="translate(-0.1 0)"/><path class="cls-33" d="M27.13,90.8l1.35,1.91a3.22,3.22,0,0,1,1.5,2.6q1.38,2.59,2.75,5.19a1.92,1.92,0,0,1-1.67-.59,44.77,44.77,0,0,1-9.61-11.33c-2.71-4.8-5.27-9.79-6.29-15.37-.27-1.45-1.59-2.7-.83-4.36A90.2,90.2,0,0,1,20,78.44,18.86,18.86,0,0,0,22.28,84C23.76,86.3,24.72,89.09,27.13,90.8Z" transform="translate(-0.1 0)"/><path class="cls-36" d="M30,95.31a8.87,8.87,0,0,1-1.5-2.6c.71.09,1.4-2.4,2.09.25A6.76,6.76,0,0,1,31,91.39a.79.79,0,0,1,1-.31c.51.19.34.42.24.83-.15.67-.35,1.45,1,.79,1.16-.58.72.69.87,1.19.24.84.44,1.62,1.49.39,0,.84-.18,1.61.46,2.15,0,.4.2.69.67.74.13,0,.55-.16.4.32-.52,1.61-.52,1.61.61,2.09-1.36.58-1.26.54-1.84-.75-.37-.83-.59-2.1-2.21-1.27-.94.48-1.87-1.08-1.83-3.31C31.35,95.22,31.12,96.38,30,95.31Z" transform="translate(-0.1 0)"/><path class="cls-37" d="M28.91,60.19H27.78A14.56,14.56,0,0,1,28,49.9c.74-1.9,1.6-3.79,2.17-5.72,1-3.19,3.18-5.59,4.7-8.43,1.29-2.43,3.52-4.14,5.2-6.29,1.29-1.65,3.35-2.54,5-3.85.82-.65,1.72-1.23,2.59-1.82.62-.41,1.29-.89,2,0,.2,1.11-.71,1.83-1,2.78a35.82,35.82,0,0,1-1.88,3.51c-1.32,2.09-2.48,4.28-3.72,6.42-2.38,4.09-4.76,8.19-7.08,12.31-2,3.26-3.8,6.63-5.78,9.89C29.83,59.24,29.66,60,28.91,60.19Z" transform="translate(-0.1 0)"/><path class="cls-38" d="M85.33,90.07c1.07.72,1.23,2,1.86,3a2.36,2.36,0,0,1-1.74,2.2c-4.5,1.54-8.8,3.76-13.6,4.35a23.14,23.14,0,0,1-8.66-.06c-2-.49-4-.49-6-1a43.75,43.75,0,0,1-7.38-2.45,79.54,79.54,0,0,1-4.6-7.89c.9-.67,1.54,0,2.15.47,7.05,5.15,15.09,6.57,23.48,5.56,4.28-.52,8.76-1.15,12.45-3.94A1.73,1.73,0,0,1,85.33,90.07Z" transform="translate(-0.1 0)"/><path class="cls-39" d="M49.5,24.08c-.41-.7-.86-.48-1.38-.11-2.42,1.75-5.13,3.22-7.2,5.32a37,37,0,0,0-4.15,4.6,57.3,57.3,0,0,0-5.25,8.35A31.54,31.54,0,0,0,29,49c-.32,1.41-.91,2.82-1.33,4.27s.19,2.76,0,4.15a16.28,16.28,0,0,0,.15,2.74H24.42c-1.05-.65-1.31-1.5-.52-2.49a1.85,1.85,0,0,0,.17-2.08,4.9,4.9,0,0,1,.23-3.81,10,10,0,0,0,.9-4.13,2.37,2.37,0,0,1,.31-1.25c.78-1.41,1.07-3,1.69-4.45a28.15,28.15,0,0,1,3.72-6.63c.24-.28.65-.48.75-.81,1-3.43,4.34-5,6.2-7.75,1.4-2.06,3.69-3.12,5.84-4.21a5.84,5.84,0,0,0,2.35-1.71c1.42-2,3.77-1.95,5.81-2.58.35-.11.65.29.78.67-.13,1.83-1.53,3.06-2.2,4.63A1.12,1.12,0,0,1,49.5,24.08Z" transform="translate(-0.1 0)"/><path class="cls-40" d="M52.43,19.05c-.17-.16-.42-.5-.5-.47-2.21,1.06-5.16.86-6.34,3.69-.19.44-.7.43-1.1.57a16.38,16.38,0,0,0-5.92,3.81c-1.64,1.63-2.75,3.76-4.74,5.09a2.77,2.77,0,0,0-1.27,2.11c-.23,1.58-2,2.18-2.6,3.71a17.53,17.53,0,0,1-2.22,4c-.72,1-.27,2.72-1.13,3.83-1.25,1.63-.78,3.57-1.17,5.35a2.84,2.84,0,0,1-.55.94,3.73,3.73,0,0,0-.52,3.15c.35,1.25,1.07,2.38-.42,3.5-.62.47.3,1.2.47,1.83H22.18c-1.79-1.15-.36-2.77-.41-4.08A32.3,32.3,0,0,1,23.58,46c.68-2.28,2.4-4.21,2.76-6.36.41-2.5,2.66-3.76,3-6.2.2-1.29,1.65-2.53,2.8-3.48,1.47-1.21,3-2.22,3.58-4.22.1-.36.59-.87.88-.86,1.62.06,2.21-1.28,3-2.19A12,12,0,0,1,43.14,20c1.37-.67,2.91-1.16,4.28-2a4.41,4.41,0,0,0,1.16-.81c1.37-1.49,3.12-1.74,5.35-.84a4.31,4.31,0,0,1-1,2.75A.38.38,0,0,1,52.43,19.05Z" transform="translate(-0.1 0)"/><path class="cls-41" d="M41.09,81.16A24.17,24.17,0,0,1,38.67,77a3.26,3.26,0,0,0-.61-1.9c-2.61-4.19-3.27-8.91-3.65-13.69a2.36,2.36,0,0,1,.16-.91A1.08,1.08,0,0,1,35,60a1.42,1.42,0,0,1,1.46.08,33.76,33.76,0,0,0,1.06,6.7,29.48,29.48,0,0,0,8.75,14.86,32.05,32.05,0,0,0,8,5.67A29.64,29.64,0,0,0,66.49,90a31.13,31.13,0,0,0,15.36-3.72,3.25,3.25,0,0,1,1.22-.44c.87.23.93.91.9,1.63A10.38,10.38,0,0,1,78.43,91a39.93,39.93,0,0,1-11.26,2.13A29.69,29.69,0,0,1,57.12,91.6a46.77,46.77,0,0,1-5.95-2.35C47.15,87.33,44.32,84,41.09,81.16Z" transform="translate(-0.1 0)"/><path class="cls-42" d="M49.78,96.14c.22-.37.57-.55.93-.34,3.93,2.24,8.36,2.45,12.66,3.3,4.88,1,9.51.09,14-1.31,2.67-.83,5.28-2,8-2.93.87-.3,1.21-1.2,1.83-1.79l.74.75.75,1.86c-.92,1.83-2.77,2.42-4.44,3.11a47.39,47.39,0,0,1-19.12,3.63,50.43,50.43,0,0,1-9.85-1.65,13.36,13.36,0,0,0-3-.2A23.74,23.74,0,0,1,49.78,96.14Z" transform="translate(-0.1 0)"/><path class="cls-43" d="M41.09,81.16c1.35,0,2.17,1.09,2.83,1.88a22.13,22.13,0,0,0,7.42,5.61,34.75,34.75,0,0,0,15.18,4A38,38,0,0,0,76.87,91a26.47,26.47,0,0,0,7-3.49c1-.23.77.72,1.1,1.13a2.5,2.5,0,0,0,.39,1.48c-2.25.4-3.76,2.34-6,2.83-4.17.92-8.21,2.24-12.61,2.14a39.87,39.87,0,0,1-14.85-3,30.89,30.89,0,0,1-4.29-2.55c-.77-.48-1.37-1.28-2.41-1.26A52.57,52.57,0,0,1,41.09,81.16Z" transform="translate(-0.1 0)"/><path class="cls-44" d="M34.89,60.21A39.56,39.56,0,0,0,37.5,73.5c.24.69.87,1,1.22,1.6a1.5,1.5,0,0,1,0,1.88c-2.28-3.64-4.44-7.36-6.44-11.17-.08-1.27-.13-2.55-.17-3.82a2.28,2.28,0,0,1,.64-2A1.81,1.81,0,0,1,34.89,60.21Z" transform="translate(-0.1 0)"/><path class="cls-45" d="M34.89,60.21H32.64a4.46,4.46,0,0,1-3.41.39l-.32-.4Q32,54.27,35.61,48.6c1.21.47.63,1.44.43,2.1-.55,1.78-.77,3.62-1.19,5.43a12.45,12.45,0,0,0,0,4Z" transform="translate(-0.1 0)"/><path class="cls-46" d="M27.13,90.8a7.34,7.34,0,0,1-3.83-4.71c-.38-1.08-2.07-2-2.09-3.31,0-1.63-2.24-2.53-1.24-4.34Q23.8,84.47,27.13,90.8Z" transform="translate(-0.1 0)"/><path class="cls-47" d="M29.23,60.59c1.06-.79,2.27-.25,3.41-.39,0,1.29,0,2.59,0,3.88,0,.59.21,1.26-.4,1.73A31.8,31.8,0,0,1,29.23,60.59Z" transform="translate(-0.1 0)"/><path class="cls-48" d="M52.76,19l1.17-2.57,1.51-2.13c.08.7.48.69,1.07.59,3-.54,6-1.39,8.93-1.4,2.79,0,5.63-.59,8.41.07,2.06.5,4.2.3,6.26,1.05C84,16,88,16.88,91.56,19.06c.08.05.07.23.11.35-.41.29-.37.73-.38,1.16-.35.38-.7.77-1.06,1.15-1.15.83-2.2.24-3.12-.39-1.32-.89-2.45-2.12-4.28-1.68a.43.43,0,0,1-.36,0c-1.27-1.23-3-.83-4.48-1.39a16.48,16.48,0,0,0-8.31-.81c-.92.12-1.69-.44-2.51-.46-2.2-.05-4.33.58-6.49.83a42,42,0,0,0-7.35,2.07C52.57,20.07,52.56,19.5,52.76,19Z" transform="translate(-0.1 0)"/><path class="cls-49" d="M84.94,88.59c-.36-.38-.73-.76-1.1-1.13L83.08,86c-.58-.1-.86-.55-1.14-1a11.29,11.29,0,0,0-1.41-2.74,3.58,3.58,0,0,1-.68-2.32c2.08-1.9,4.35-3.65,6-5.94a24.4,24.4,0,0,0,4-8,27.68,27.68,0,0,0,.4-3.66,8.56,8.56,0,0,1,.58-2.83c.49-1.1-.14-2.39-.54-3.39-.94-2.36-1.2-4.92-2.4-7.2a11.08,11.08,0,0,0-3.32-3.93c-1.46-1-2.44-2.67-4.2-3.33a1.18,1.18,0,0,1-.63-1.08,4.26,4.26,0,0,1,.72-2.32,9,9,0,0,0,.88-1.24c.29-.5.51-1,.8-1.53.72-.93,1.11-2,1.79-3,.28-.31.48-.74,1-.65a8.55,8.55,0,0,0,5,4.48c.4.15.94.06,1,.64A2.17,2.17,0,0,0,93,39.06a.58.58,0,0,1,.38.37c.75,3,3.4,4.74,4.62,7.46.83,1.86.61,4.08,2.08,5.67-1.24,2,.58,3.54.8,5.31a4.84,4.84,0,0,1-.53,3.53c-.5.69-.71,1.32.14,1.9.27.18.57.53.38.76-1.83,2.21-1.53,5.16-2.57,7.69s-2.67,4.41-3.45,6.91c-.3,1-.72,2.39-2.4,2.31a1.53,1.53,0,0,0-1.16.81c-1,2.71-3.1,4.18-5.46,5.46A1.55,1.55,0,0,0,84.94,88.59Z" transform="translate(-0.1 0)"/><path class="cls-50" d="M84.93,31.75l-.74.77c-2.36-.37-4.31-1.87-6.62-2.43A32.9,32.9,0,0,0,59,30.46a31.08,31.08,0,0,0-10.09,5.48,32.34,32.34,0,0,0-7.53,9.18A26.32,26.32,0,0,0,37.93,57a7,7,0,0,1-.72,3.25.69.69,0,0,1-.83,0l-1.51,0c-1.11-.91-.33-2.14-.55-3.19-.26-1.27,1.17-2.39.22-3.67,1.1-.39.44-1.51.91-2.2a2.65,2.65,0,0,0,.16-2.51c2.24-4.19,4.59-8.31,7.12-12.33,1.58-.27,2.05-1.85,3.14-2.73a36.62,36.62,0,0,1,8-5,33.57,33.57,0,0,1,8.7-2.94,60.79,60.79,0,0,1,9.73-.51c1.64,0,3,.9,4.62.7a1.84,1.84,0,0,1,1.07.27,34.2,34.2,0,0,0,7.79,3.09C85.83,30.15,85,30.85,84.93,31.75Z" transform="translate(-0.1 0)"/><path class="cls-51" d="M85.73,29.18a2.62,2.62,0,0,1-3.3-.68c-.67-.74-1.54-.54-2.34-.69-1.64-.3-2.87-1.37-4.77-1.54-3.72-.35-6.08-.76-9-.49a23.14,23.14,0,0,0-4.36.56c-1.37.39-2.91.26-4.12,1.13-.94.68-2.08.76-3.08,1.25-3.13,1.52-6.22,3-8.73,5.56-.59.6-1.41.86-1.73,1.84a.88.88,0,0,1-1.54.15,50.89,50.89,0,0,1,3.7-6.4c2.86-1.34,5.55-3,8.51-4.16,5.89-2.32,12-3.52,18.22-2.51,4.23.69,8.61,1.3,12.34,3.79.52.35,1.4.48,1,1.47Z" transform="translate(-0.1 0)"/><path class="cls-52" d="M49.5,24.08l.59-.54a47.7,47.7,0,0,1,16.1-4.26,38.65,38.65,0,0,1,16.24,2.47c.76.27,1.59.34,2.34.62,1.46.54,2.94,1.09,3.58,2.72l-.84,2.19-.32,0c-3.36-2.26-7.26-3-11.07-4-7.9-1.95-15.47-.31-22.92,2.33-1.27.45-2.08,1.82-3.56,1.89-.67,0-1.65.38-1.31-1C48.17,25.47,49.16,24.93,49.5,24.08Z" transform="translate(-0.1 0)"/><path class="cls-53" d="M48.33,26.56c.92,1.48,2.23.46,2.7,0,1.49-1.61,3.52-1.71,5.31-2.42,5-2,10.29-2,15.51-2.21,1.69-.08,3.38.66,5.05,1a59.59,59.59,0,0,1,8.88,2.85c.75.3,1.32.66,1.41,1.53-.25.38-.49.77-.73,1.16a6.66,6.66,0,0,0-3.73-2.41,44.55,44.55,0,0,0-6.36-1.77c-2.41-.38-4.83-.66-7.23-1a12,12,0,0,0-2.75.28,42.75,42.75,0,0,0-17.58,5.66,3.81,3.81,0,0,0-1,.83c-.5.54-1,.74-1.43-.14A14,14,0,0,1,48.33,26.56Z" transform="translate(-0.1 0)"/><path class="cls-54" d="M88.35,25.09c-4-3-8.65-4-13.4-4.65-.72-.1-1.22-.48-1.87-.61-2.78-.58-5.55-.08-8.3.11-2,.14-4,.76-6,1s-3.47,1.17-5.18,1.79a9.37,9.37,0,0,1-3.55.84l2.34-4.49.33-.1c.09.21.2.6.28.6.68-.06,1.08-1.33,2-.44a3.58,3.58,0,0,1,3.48-1.59c1.7.67,2.85-1.24,4.46-.44.75.37,1.49-.8,2.76-.65s2.61.84,3.79.53c2.18-.57,4.26-.11,6.36.16a4.07,4.07,0,0,1,2.22.69c.51.41,1.2.82,1.84.06.06-.07.26-.15.28-.12,1.94,2.17,5.71.62,7.38,3.56a4,4,0,0,0,2.64.41A8,8,0,0,1,88.35,25.09Z" transform="translate(-0.1 0)"/><path class="cls-55" d="M36.38,60.21l.75,0a.71.71,0,0,1,.81-.07c1.2,1.7.54,3.76,1.07,5.58.83,2.88,1.07,6,3.26,8.35.82.87.92,2.2,1.72,3.07,2.67,2.89,5.06,6.05,8.91,7.64,1.76.72,3.35,1.84,5.23,2.35,6.84,1.88,13.54,2,20-1.34,1.28-.66,2.56-1.64,4.18-.9L83.08,86C79.93,88.09,76.41,89,72.72,89.9c-3.49.84-6.88.43-10.27.42-2.38,0-4.83-1-7.11-1.88A24.33,24.33,0,0,1,48,83.91a47,47,0,0,1-7-7.76c-2.74-3.84-3.4-8.28-4.92-12.47C35.65,62.55,36.26,61.37,36.38,60.21Z" transform="translate(-0.1 0)"/><path class="cls-56" d="M80.06,40.32c.11.28.14.73.34.82,2.78,1.29,4.72,3.61,6.82,5.69a9.39,9.39,0,0,1,2.39,5.08c.37,2.18,1.53,4.08,1.77,6.27,0,.4.48,1,.2,1.2-1.11,1-.52,2.23-.8,3.3-.47,1.79-.18,3.7-1.22,5.44-.66,1.12-.66,2.6-1.93,3.45-.83.54-.46,1.64-1,2.47-1.21,1.81-3.46,2.56-4.35,4.65-.34.81-1.65.5-2.17,1.31a.42.42,0,0,1-.45.09c-.66-.43-.85-1.18-1.23-1.8a4.91,4.91,0,0,0-.59-.77,2.69,2.69,0,0,1-.68-1.38,2.06,2.06,0,0,1,.07-.82,4.78,4.78,0,0,1,1.84-2,16.18,16.18,0,0,0,6.1-9,13.77,13.77,0,0,0-.15-8,68.16,68.16,0,0,0-3-6.35,7,7,0,0,0-3.18-3c-.75-.43-1.58-.78-1.72-1.8a3,3,0,0,1,.38-1.58,13.87,13.87,0,0,1,.81-1.33c.28-.4.5-.86.75-1.29a1.47,1.47,0,0,1,.52-.53A.54.54,0,0,1,80.06,40.32Z" transform="translate(-0.1 0)"/><path class="cls-57" d="M37.87,60.2l-.74,0a31.93,31.93,0,0,1,2.38-12.61A32.92,32.92,0,0,1,54.56,31.72a31.26,31.26,0,0,1,11.71-3.26A32.56,32.56,0,0,1,79,30a18.44,18.44,0,0,1,5.15,2.49c-.57,1-.87,2.25-1.83,3.07-4.54-3.51-10-3.56-15.31-3.81a2.06,2.06,0,0,0-1.54.5c-1.1.77-2.43.77-3.67,1.12a29.2,29.2,0,0,0-10.5,5.31,26.37,26.37,0,0,0-9.21,14.46,20.84,20.84,0,0,0-.89,4.91c0,.83.09,1.79-.81,2.35a1.78,1.78,0,0,1-.55.18A2.4,2.4,0,0,1,37.87,60.2Z" transform="translate(-0.1 0)"/><path class="cls-58" d="M37.87,60.2h2.25c.34.33,1.32-.25,1,1.15a5,5,0,0,0,.46,4.27c.59.84.34,2,.7,3A26.82,26.82,0,0,0,47,76.89c1,1.18,2.17,2.1,3.06,3.4s2.6,1.49,3.9,2.29a24.77,24.77,0,0,0,7.57,2.9,22,22,0,0,0,8.75.24,22.62,22.62,0,0,0,8.58-3.15,2.66,2.66,0,0,1,2-.36c1,.57,1,1.76,1.49,2.64-2,0-3.58,1.25-5.34,2-4.69,1.85-9.39,2.71-14.5,1.59-2.19-.48-4.61-.5-6.55-1.56-3.26-1.79-7.15-2.73-9.27-6.3-.71-1.19-2.3-1.56-3-3-1.43-3-3.58-5.52-4.51-8.89C38.41,65.84,38.61,63,37.87,60.2Z" transform="translate(-0.1 0)"/><path class="cls-59" d="M80.06,40.32l-.35,0a16.64,16.64,0,0,0-7.93-2.65c-2,0-3.85-.57-5.9-.37a21.57,21.57,0,0,0-8.77,3.36,20.21,20.21,0,0,0-8,8.08,25.12,25.12,0,0,0-2.88,9.73,2.83,2.83,0,0,1-.42,1.77,1.75,1.75,0,0,1-1.17.31,1.57,1.57,0,0,1-.86-.33A3.23,3.23,0,0,1,43.22,58a28.92,28.92,0,0,1,3.29-10.62,24.15,24.15,0,0,1,17.31-12.4c5.27-1,10.79-.92,15.74,2,.53.31,1.14.53,1.34,1.2Z" transform="translate(-0.1 0)"/><path class="cls-60" d="M80.9,38.17c-2.94-1.61-6-3.13-9.38-3.08-3,0-6-.19-9,.56-5.15,1.28-9.1,4.38-12.84,7.8a13.65,13.65,0,0,0-3.37,5.3,38.85,38.85,0,0,0-2.51,8.5c-.12,1,.17,2,.07,2.92a1.15,1.15,0,0,1-1.31.27,1,1,0,0,1-.41-.35,8.45,8.45,0,0,1,.12-5.82,62,62,0,0,1,2.14-5.9c2.13-4.91,5.76-8.42,10.12-11.3,3-2,6.53-2.89,9.94-4A4.24,4.24,0,0,1,66.11,33l.49,0a2.6,2.6,0,0,0,1.58-.47A17.36,17.36,0,0,0,70,32.08c1.11-.58,1.26-.39,1.18,1.14,1.88-.51,3.67-.92,5.36.67.63.6,1.85-.07,2.81.58C80,34.91,81.36,36,81.59,37A1.34,1.34,0,0,1,80.9,38.17Z" transform="translate(-0.1 0)"/><path class="cls-61" d="M80.85,82.21c-1.67.71-3.19,1.93-4.78,2.47a16.19,16.19,0,0,1-4.43,1.21c-2,.11-3.87.94-6,.29a16.81,16.81,0,0,0-2.28,0c-3.16-.31-5.85-1.66-8.69-2.8-1.64-.66-3-1.87-4.78-2.25-.62-.13-.92-1.29-1.43-1.92-1.47-1.85-3.83-3.11-4.16-5.81-.09-.72-1.07-.88-1.46-1.71C42,69.87,42,67.84,41.2,66.24s-.21-3-.89-4.3c-.28-.54.93-1.27-.19-1.74l.37,0a1.48,1.48,0,0,1,1.87,0v0a9.34,9.34,0,0,1,.91,5.54c-.2,1.8.1,3.32,1.71,4.35.59.38,1.11.69.31,1.36-.13.11-.3.39-.11.41,1.26.15.74,1.71,1.17,1.84,1.22.36.87,2.17,2.27,2.16,0,2.32,2.22,1.93,3.33,2.89,2.2,1.92,5.26,2.59,7.09,5,.28.36.78.33,1.22.36a7.63,7.63,0,0,1,3.1.51c.59.3,1.07,0,1.53-.39a2.2,2.2,0,0,1,1.94-.42c.69.17.78.54.24,1.1.55-.62,1.06-1.54,2-.51,1.3-1,3.22.17,4.4-1.27a.75.75,0,0,1,.63-.35c2.56.41,4-1.43,5.65-2.8h.36C80.34,80.74,80.6,81.48,80.85,82.21Z" transform="translate(-0.1 0)"/><path class="cls-62" d="M81.59,37c-.17-1-2.31-.67-1.63-2.3-.92.84-1.65-1-2.41-.24s-.89.21-1.44-.23-1-2-2.12-.57c-1-1.05-2,0-3.07-.07-.13,0-.25-.2-.38-.31.43-.34,1-.79.21-1.19-.49-.26-.67.56-1.09.8-.58.34-1-.5-1.52,0-.6-.26-1,.2-1.5.38h-.37a2.22,2.22,0,0,1-1.12-1.12c1.06-2.11,2.93-.76,4.26-.74a39,39,0,0,1,9.06,1.25,6.16,6.16,0,0,1,3.89,2.91A2.31,2.31,0,0,1,81.59,37Z" transform="translate(-0.1 0)"/><path class="cls-63" d="M77.46,44.83c0,.85.66,1.1,1.27,1.42A8.56,8.56,0,0,1,83,50.84c.67,1.67,1.7,3.18,2.28,5a14.62,14.62,0,0,1-.47,10.49,18.08,18.08,0,0,1-6.13,7.82,9.07,9.07,0,0,0-1.22,1.39c-1.13-.06-1.23-1.17-1.83-1.78-2.09-4-4.47-7.86-6.66-11.82a4.19,4.19,0,0,1-.73-1.69c.93-2.72,2.72-5,4-7.53.4-.65.72-1.36,1.16-2a23.27,23.27,0,0,0,1.2-2.19c.72-.94,1.12-2.07,1.8-3C76.72,45.17,76.92,44.74,77.46,44.83Z" transform="translate(-0.1 0)"/><path class="cls-64" d="M79.72,80a5.1,5.1,0,0,1-5.39,3.12c-.18,0-.5,0-.51.08-.37,2.3-2.17.72-3.23,1.15-.3.13-.73-.09-.79.45,0,.3-.36.53-.45.4-1.33-1.92-2.3,1.1-3.55.22.09-.75,1-.56,1.33-1.26-.9,0-1.73-.1-2.29.78a.88.88,0,0,1-1.3.29,6.37,6.37,0,0,0-3.67-.62,1.49,1.49,0,0,1-1.17-.41c-1.67-2.48-4.75-3-6.78-4.94a2.62,2.62,0,0,0-2-.7c-1,0-2-.57-1.56-2,0-.15.07-.31.11-.47-1.72.52-1.23-1.62-2.32-1.93-.38-.11-1.76-.31-.31-1.16.33-.2,0-.62-.46-.72s-1.11.33-1.12-.48c0-.63.64-.78,1.29-.94-2.64-1.24-3-2.67-2.62-5.6.24-1.64-.37-3.39-.6-5.1l1.5,0,.75,0a1.87,1.87,0,0,1,.74,1.45,18,18,0,0,0,3.77,10.92,22.45,22.45,0,0,0,11.55,8.09c5.84,1.85,11.28.62,16.57-2a5.73,5.73,0,0,1,1.37-.59A6.29,6.29,0,0,1,79.72,80Z" transform="translate(-0.1 0)"/><path class="cls-65" d="M76,73.62l1.48,1.9v.73A2.69,2.69,0,0,1,76,77.81,19.83,19.83,0,0,1,52.59,74a18.47,18.47,0,0,1-5.72-12,2.82,2.82,0,0,1,.2-1.81,1.46,1.46,0,0,1,.81-.41,5,5,0,0,1,1.81,0,1.47,1.47,0,0,1,.52.25,49.24,49.24,0,0,1,1.5,5.73,5.77,5.77,0,0,0,1.66,2.85c1.37,1.72,2.5,3.58,4.5,4.83a15.28,15.28,0,0,0,13.46,1.86C72.92,74.83,74.33,73.89,76,73.62Z" transform="translate(-0.1 0)"/><path class="cls-66" d="M50.19,60.21l-.36,0c-1.1-1.89-.32-3.83.17-5.58a16.81,16.81,0,0,1,7-10,34.86,34.86,0,0,1,5.5-3.1c4.21-1.73,8.37-1.25,12.48.17,1,.35,2.6.07,2.91,1.73-.14.46-.29.92-.43,1.39l-.74.78a30.91,30.91,0,0,0-4.66-1.09,49.9,49.9,0,0,0-5.16-.68c-.4-.05-.84-.36-.92.41,0,.45-.52.5-.89.47a8.29,8.29,0,0,0-5.81,2.16c-1.68,1.53-4,2.82-4.48,5.49-.16.9-1,1.53-1.3,2.44s-.88,2-.45,3.2a2.36,2.36,0,0,1-.91,2.47A1.85,1.85,0,0,1,50.19,60.21Z" transform="translate(-0.1 0)"/><path class="cls-67" d="M77.89,43.44c-2.18-1.08-4.34-2.17-6.88-2.2-2.27,0-4.49-.56-6.8.2A22.38,22.38,0,0,0,53.89,48a16.83,16.83,0,0,0-4.06,12.2H48a2.17,2.17,0,0,1-.49-1.74c.37-5.53,2.08-10.35,6.71-13.9,1.65-1.26,3.08-2.74,5-3.65,6.19-2.86,12.36-3.31,18.64-.36.78.37,1.2.87.74,1.76Z" transform="translate(-0.1 0)"/><path class="cls-68" d="M78.6,78.11c-.83,1.62-2.64,1.66-4,2.28a19,19,0,0,1-10.42,1.67A23.71,23.71,0,0,1,53.27,77.4a20.5,20.5,0,0,1-7-8.82c-.84-2.09-1.84-4.31-1.39-6.76a4.85,4.85,0,0,0-.32-1.62l1.12,0a.37.37,0,0,1,.51.07,32.54,32.54,0,0,0,2.08,7.87A20.57,20.57,0,0,0,59.55,78.9c5.67,2.4,11,1.52,16.37-.85a8.08,8.08,0,0,1,2.3-.66A.74.74,0,0,1,78.6,78.11Z" transform="translate(-0.1 0)"/><path class="cls-69" d="M78.22,77.39C71.69,81.13,64.91,82.3,58,78.78,50.43,75,46.43,68.71,46.09,60.21a.83.83,0,0,1,.43-.28.75.75,0,0,1,.69.28c.25,8.32,4.46,14.23,11.75,17.64,4.44,2.07,9.36,2.68,14.2.44,1.44-.67,3-1,4.31-2Z" transform="translate(-0.1 0)"/><path class="cls-70" d="M47.21,60.21l-.75,0A1.43,1.43,0,0,1,46.11,59a24.1,24.1,0,0,1,2.57-9.26A23.14,23.14,0,0,1,63.74,38c5-1.27,9.84-.23,14.57,1.45a1.56,1.56,0,0,1,1.09,1.39,2.62,2.62,0,0,1-.79,1.49A1.18,1.18,0,0,0,77.83,41c-4.92-1.79-9.79-3-15-.83a43.28,43.28,0,0,1-5.43,2.17,1.88,1.88,0,0,0-.64.37c-4.23,3.6-7.85,7.58-8.62,13.43-.18,1.37-.07,2.72-.15,4.08Z" transform="translate(-0.1 0)"/><path class="cls-71" d="M79.4,40.79c-2.26-2.19-5.26-2.14-8.07-2.64a19.21,19.21,0,0,0-15.79,4.08c-4.62,3.75-8.39,8.51-8.7,15-.05,1-.55,1.91-.38,2.93l-.37,0-.37,0A22.13,22.13,0,0,1,50,46.48a23.07,23.07,0,0,1,8.73-7.12,21.68,21.68,0,0,1,7.81-2.51,7.2,7.2,0,0,1,3.1.09,24.78,24.78,0,0,0,3,.23,52.36,52.36,0,0,1,6.62,2.09c.5.17.46.68.46,1.11Z" transform="translate(-0.1 0)"/><path class="cls-72" d="M65.15,32.17c.73,0,.85.64,1.12,1.12-1.9.07-3.55,1.18-5.32,1.46a15.59,15.59,0,0,0-6.54,3c-2.86,2-5.65,4.09-7.59,7.25a29.52,29.52,0,0,0-3.31,6.53c-.82,2.71-2.23,5.58-1.15,8.63H40.49a53.68,53.68,0,0,1,.88-6.23c.67-2.62,1.35-5.33,2.94-7.57a37.93,37.93,0,0,1,3.74-5.19,34.05,34.05,0,0,1,6.09-4.83,37.3,37.3,0,0,1,7.67-3.44C62.88,32.52,64.12,32.83,65.15,32.17Z" transform="translate(-0.1 0)"/><path class="cls-72" d="M66.64,33.29c.62-1.17.91-1.24,1.5-.38C67.7,33.29,67.33,33.92,66.64,33.29Z" transform="translate(-0.1 0)"/><path class="cls-2" d="M50.19,60.21l2.25,0c.64-.62,1.46-.49,2.24-.52,1,0,2-.06,3,0,.8,0,1.59,0,2.39,0,2.11-.1,4.22,0,6.33,0a2.69,2.69,0,0,1,2.09.56C71,64.67,73.78,69,76,73.62c-5,3.95-14.17,3.73-18.58.15A21.78,21.78,0,0,1,51.79,67,11.44,11.44,0,0,1,50.19,60.21Z" transform="translate(-0.1 0)"/><path class="cls-73" d="M54.69,60.16H52.44c0-2.63-.3-5.31,1.79-7.5a5.53,5.53,0,0,0,.85-1.94,3.75,3.75,0,0,1,2.7-2.6c.24-.08.54-.24.34-.52-.56-.84.25-1,.64-1.2,1.6-.78,3.37-1.18,4.79-2.32.35-.28.76.25.77.18.14-.67,1.85,1.1,1.14-.74a3.49,3.49,0,0,1,1.22-.29c3,.45,6,1,9.06,1.43.67.09.74.54,1,.94a10.11,10.11,0,0,1-1.82,3.08C66.57,43.07,57.29,49.85,55.84,57,55.62,58.06,55.93,59.41,54.69,60.16Z" transform="translate(-0.1 0)"/><path class="cls-74" d="M54.69,60.16c.72-2.15.78-4.43,1.81-6.56,1.89-3.89,7.07-7.37,11.36-7.24,1.06,0,2.12,0,3.17,0a4,4,0,0,1,3.87,2.33,5,5,0,0,1-1.16,2.15c-2.08-.9-4.38-.53-6.51-1.17-.47-.15-1,.16-1.4.37-3.92,1.86-7.24,4.21-7.22,9.16,0,.74-.65.61-.93,1Z" transform="translate(-0.1 0)"/><path class="cls-75" d="M68.5,60.17H59.92c-.63-.82-.22-1.7-.08-2.52.59-3.28,5.35-6.89,8.65-6.61a13.93,13.93,0,0,1,2.42.17c.81.2,1.78.32,1.72,1.54Q70.58,56.46,68.5,60.17Z" transform="translate(-0.1 0)"/><path class="cls-76" d="M72.63,52.74c-1.42-1.4-6-1.83-7.59-.65-1,.74-1.86,1.62-2.81,2.42-1.77,1.48-2.08,3.54-2.31,5.65H57.68c.82-.7.36-1.69.5-2.53.51-3.12,2.54-5,5-6.6a8.82,8.82,0,0,1,3-1.54c1.85-.43,3.56.15,5.31.41.78.11,1.86-.2,2.26.94Z" transform="translate(-0.1 0)"/><path class="cls-61" d="M60,84.09c-.22,0-.53.08-.56-.26,0-.08.24-.26.37-.26a.64.64,0,0,1,.47.24C60.47,84.1,60.16,84,60,84.09Z" transform="translate(-0.1 0)"/></svg>